<svg xmlns="http://www.w3.org/2000/svg" xmlns:xlink="http://www.w3.org/1999/xlink" version="1.1" x="0px" y="0px" viewBox="0 -20 100 140" enable-background="new 0 0 100 100" xml:space="preserve"><g><path fill="#000000" d="M32.648,82.013c0.041,3.014,2.505,5.453,5.528,5.453h25.273c3.021,0,5.485-2.438,5.527-5.449l4.821-48.771   H28.054L32.648,82.013z M65.984,81.789l-0.007,0.147c0,1.395-1.134,2.529-2.528,2.529H38.176c-1.394,0-2.528-1.135-2.528-2.529   L31.35,36.245h39.137L65.984,81.789z"/><path fill="#000000" d="M42.289,79.105c0.917,0,1.66-0.743,1.66-1.66V43.428c0-0.917-0.743-1.66-1.66-1.66s-1.659,0.743-1.659,1.66   v34.018C40.63,78.362,41.372,79.105,42.289,79.105z"/><path fill="#000000" d="M50.812,79.105c0.916,0,1.66-0.743,1.66-1.66V43.428c0-0.917-0.744-1.66-1.66-1.66s-1.66,0.743-1.66,1.66   v34.018C49.151,78.362,49.896,79.105,50.812,79.105z"/><path fill="#000000" d="M59.015,79.105c0.917,0,1.66-0.743,1.66-1.66V43.428c0-0.917-0.743-1.66-1.66-1.66s-1.66,0.743-1.66,1.66   v34.018C57.354,78.362,58.098,79.105,59.015,79.105z"/><path fill="#000000" d="M76.159,27.471L64.53,25.906l1.124-8.356l-27.946-3.761l-1.125,8.355l-12.343-1.661   c-0.813-0.104-1.576,0.466-1.687,1.287c-0.11,0.821,0.466,1.576,1.287,1.687l51.918,6.988c0.068,0.009,0.136,0.013,0.202,0.013   c0.739,0,1.383-0.547,1.484-1.3C77.556,28.337,76.98,27.582,76.159,27.471z M40.282,17.162l22,2.961l-0.725,5.383l-22-2.961   L40.282,17.162z"/></g></svg>
