<svg xmlns="http://www.w3.org/2000/svg" xmlns:xlink="http://www.w3.org/1999/xlink" xmlns:sketch="http://www.bohemiancoding.com/sketch/ns" viewBox="0 0 100 100" version="1.1" x="0px" y="0px"><title>like</title><desc>Created with Sketch.</desc><g stroke="none" stroke-width="1" fill="none" fill-rule="evenodd" sketch:type="MSPage"><g sketch:type="MSArtboardGroup" fill="#000000"><path d="M49.702,71.346 L45.978,67.622 C34.959,57.874 27,50.827 27,41.937 C27,34.683 32.682,29 39.936,29 C43.554,29 47.127,30.509 49.702,33.082 C52.277,30.509 55.85,29 59.468,29 C66.722,29 72.404,34.683 72.404,41.937 C72.404,50.833 64.434,57.884 53.403,67.643 L49.702,71.346 L49.702,71.346 Z M39.936,31 C33.804,31 29,35.804 29,41.937 C29,49.561 35.622,55.79 47.326,66.145 L47.371,66.187 L49.702,68.518 L52.033,66.187 C63.782,55.79 70.404,49.561 70.404,41.937 C70.404,35.804 65.6,31 59.468,31 C56.109,31 52.66,32.61 50.465,35.203 L49.702,36.106 L48.939,35.203 C46.744,32.61 43.295,31 39.936,31 L39.936,31 Z" sketch:type="MSShapeGroup"></path></g></g></svg>