<svg xmlns="http://www.w3.org/2000/svg" xmlns:xlink="http://www.w3.org/1999/xlink" xmlns:sketch="http://www.bohemiancoding.com/sketch/ns" viewBox="0 0 100 100" version="1.1" x="0px" y="0px"><title>settings</title><desc>Created with Sketch.</desc><g stroke="none" stroke-width="1" fill="none" fill-rule="evenodd" sketch:type="MSPage"><g sketch:type="MSArtboardGroup" fill="#000000"><path d="M49.994,40.953 C52.5,40.953 54.755,41.972 56.397,43.603 C58.028,45.246 59.047,47.5 59.047,49.994 C59.047,52.501 58.028,54.755 56.397,56.397 C54.755,58.028 52.5,59.048 49.994,59.048 C47.499,59.048 45.245,58.028 43.602,56.397 C41.972,54.755 40.952,52.501 40.952,49.994 C40.952,47.5 41.972,45.246 43.602,43.603 C45.245,41.972 47.499,40.953 49.994,40.953 L49.994,40.953 Z M54.131,34.693 C54.79,34.873 55.438,35.089 56.061,35.353 C56.697,35.617 57.308,35.917 57.908,36.252 L60.51,33.651 L61.205,34.346 L65.655,38.783 L66.349,39.49 L63.747,42.092 C64.083,42.679 64.383,43.303 64.647,43.927 C64.911,44.562 65.127,45.21 65.306,45.869 L69,45.869 L69,54.131 L65.306,54.131 C65.127,54.791 64.911,55.438 64.647,56.062 C64.383,56.697 64.083,57.309 63.747,57.908 L65.655,59.815 L66.349,60.511 L60.51,66.35 L59.815,65.654 L57.908,63.748 C57.308,64.084 56.697,64.384 56.061,64.647 C55.438,64.911 54.79,65.127 54.131,65.307 L54.131,69 L45.869,69 L45.869,65.307 C45.21,65.127 44.562,64.911 43.938,64.647 C43.303,64.384 42.679,64.084 42.092,63.748 L39.489,66.35 L38.782,65.654 L34.345,61.206 L33.65,60.511 L36.252,57.908 C35.916,57.309 35.616,56.697 35.353,56.062 C35.089,55.438 34.873,54.791 34.693,54.131 L31,54.131 L31,45.869 L34.693,45.869 C34.873,45.21 35.089,44.562 35.353,43.938 C35.616,43.303 35.916,42.679 36.252,42.092 L34.345,40.185 L33.65,39.49 L34.345,38.783 L38.782,34.346 L39.489,33.651 L40.185,34.346 L42.092,36.252 C42.679,35.917 43.303,35.617 43.938,35.353 C44.562,35.089 45.21,34.873 45.869,34.693 L45.869,31 L54.131,31 L54.131,34.693 L54.131,34.693 Z M55.306,37.175 C54.55,36.864 53.759,36.612 52.932,36.432 L52.152,36.264 L52.152,32.978 L47.847,32.978 L47.847,36.264 L47.068,36.432 C46.24,36.612 45.449,36.864 44.694,37.175 C43.914,37.499 43.171,37.883 42.475,38.339 L41.804,38.771 L41.24,38.207 L39.489,36.444 L36.443,39.49 L38.207,41.241 L38.77,41.804 L38.338,42.476 C37.883,43.171 37.499,43.914 37.175,44.694 C36.852,45.45 36.612,46.241 36.432,47.068 L36.264,47.848 L32.978,47.848 L32.978,52.153 L36.264,52.153 L36.432,52.932 C36.612,53.76 36.852,54.551 37.175,55.306 C37.499,56.086 37.883,56.829 38.338,57.525 L38.77,58.184 L38.207,58.747 L36.443,60.511 L39.489,63.556 L41.24,61.793 L41.804,61.23 L42.475,61.661 C43.171,62.117 43.914,62.501 44.694,62.825 C45.449,63.137 46.24,63.388 47.068,63.568 L47.847,63.736 L47.847,67.022 L52.152,67.022 L52.152,63.736 L52.932,63.568 C53.759,63.388 54.55,63.137 55.306,62.825 C56.085,62.501 56.829,62.117 57.524,61.661 L58.184,61.23 L58.747,61.793 L60.51,63.556 L63.556,60.511 L61.793,58.747 L61.229,58.184 L61.661,57.525 C62.117,56.829 62.501,56.086 62.825,55.306 C63.135,54.551 63.388,53.76 63.568,52.932 L63.735,52.153 L67.021,52.153 L67.021,47.848 L63.735,47.848 L63.568,47.068 C63.388,46.241 63.135,45.45 62.825,44.694 C62.501,43.914 62.117,43.171 61.661,42.476 L61.229,41.804 L61.793,41.241 L63.556,39.49 L60.51,36.444 L58.747,38.207 L58.184,38.771 L57.524,38.339 C56.829,37.883 56.085,37.499 55.306,37.175 L55.306,37.175 Z M54.994,45.006 C53.711,43.722 51.948,42.931 49.994,42.931 C48.051,42.931 46.276,43.722 45.005,45.006 C43.723,46.277 42.931,48.052 42.931,49.994 C42.931,51.949 43.723,53.711 45.005,54.995 C46.276,56.278 48.051,57.069 49.994,57.069 C51.948,57.069 53.711,56.278 54.994,54.995 C56.277,53.711 57.068,51.949 57.068,49.994 C57.068,48.052 56.277,46.277 54.994,45.006 L54.994,45.006 Z" sketch:type="MSShapeGroup"></path></g></g></svg>